v 0.0036894534714519978 0.008344332687556744 -0.0017500004032626748
v 0.0014145723544061184 0.0004989839508198202 -0.0017500004032626748
v 0.0010579813970252872 0.001063329167664051 -0.0017500004032626748
v 0.001490984228439629 -0.00016419308667536825 -0.0017500004032626748
v 0.004304909612983465 -0.008044113405048847 -0.0017500004032626748
v 0.0012720893137156963 -0.0007948472048155963 -0.0017500004032626748
v -0.0008012457401491702 0.001268072403036058 -0.0017500004032626748
v -0.0012720952508971095 0.0007948454585857689 -0.0017500004032626748
v -0.0041172681376338005 0.003047636477276683 -0.0017500004032626748
v -0.0014909900492057204 0.00016419132589362562 -0.0017500004032626748
v -0.003877092618495226 -0.0033478543628007174 -0.0017500004032626748
v -0.0014145711902529001 -0.0004989832523278892 -0.0017500004032626748
v -0.004000503104180098 -0.004118397366255522 -0.0017500004032626748
v -0.005041512195020914 -0.005240646656602621 -0.0017500004032626748
v -0.004409396089613438 -0.0047830562107264996 -0.0017500004032626748
v 0.0004918466438539326 0.0014170677168294787 -0.0017500004032626748
v -0.0001717001141514629 0.0014901417307555676 -0.0017500004032626748
v -0.0058006285689771175 -0.0054214997217059135 -0.0017500004032626748
v -0.009685232304036617 -0.008569499477744102 -0.0017500004032626748
v -0.00979781337082386 -0.005571610294282436 -0.0017500004032626748
v -0.0010579873342067003 -0.0010633309138938785 -0.0017500004032626748
v -0.0004918525228276849 -0.0014170694630593061 -0.0017500004032626748
v 0.0001717012346489355 -0.0014901410322636366 -0.0017500004032626748
v 0.0008012468460947275 -0.001268071704544127 -0.0017500004032626748
v -0.004298128187656403 0.0038067500572651625 -0.0017500004032626748
v -0.004755719564855099 0.004438870120793581 -0.0017500004032626748
v -0.005420377012342215 0.004847759380936623 -0.0017500004032626748
v -0.010300680994987488 0.007818947546184063 -0.0017500004032626748
v -0.006190916523337364 0.004971171263605356 -0.0017500004032626748
v -0.01018810085952282 0.004821060691028833 -0.0017500004032626748
v -0.004304908215999603 0.008044114336371422 0.009750000201165676
v -0.004304908215999603 0.008044114336371422 0.004250000696629286
v -0.004192328546196222 0.005046227015554905 0.009750000201165676
v -0.004192328546196222 0.005046227015554905 0.004250000696629286
v -0.0036894595250487328 -0.008344334550201893 0.009750000201165676
v -0.0038020391948521137 -0.005346447229385376 0.009750000201165676
v -0.0036894595250487328 -0.008344334550201893 0.004250000696629286
v -0.0038020391948521137 -0.005346447229385376 0.004250000696629286
v -0.0038020391948521137 -0.005346447229385376 0.004250000696629286
v -0.00979781337082386 -0.005571610294282436 0.004250000696629286
v -0.0036894595250487328 -0.008344334550201893 0.004250000696629286
v -0.009685232304036617 -0.008569499477744102 0.004250000696629286
v -0.004304908215999603 0.008044114336371422 0.004250000696629286
v -0.010300680994987488 0.007818947546184063 0.004250000696629286
v -0.004192328546196222 0.005046227015554905 0.004250000696629286
v -0.01018810085952282 0.004821060691028833 0.004250000696629286
v -0.01018810085952282 0.004821060691028833 -0.0002500011178199202
v -0.010300680994987488 0.007818947546184063 -0.0002500011178199202
v -0.010838469490408897 0.00479663722217083 -0.0001014514418784529
v -0.010951048694550991 0.007794525008648634 -0.0001014514418784529
v -0.010838469490408897 0.00479663722217083 -0.0001014514418784529
v -0.010951048694550991 0.007794525008648634 -0.0001014514418784529
v -0.011360019445419312 0.004777052905410528 0.0003147640672978014
v -0.011472606100142002 0.007774938363581896 0.0003147640672978014
v -0.011360019445419312 0.004777052905410528 0.0003147640672978014
v -0.011472606100142002 0.007774938363581896 0.0003147640672978014
v -0.011649460531771183 0.004766181576997042 0.0009162196656689048
v -0.011762039735913277 0.007764069363474846 0.0009162196656689048
v -0.011649460531771183 0.004766181576997042 0.0009162196656689048
v -0.011762039735913277 0.007764069363474846 0.0009162196656689048
v -0.011649460531771183 0.004766181576997042 0.0015837805112823844
v -0.011762039735913277 0.007764069363474846 0.0015837805112823844
v -0.011649460531771183 0.004766181576997042 0.0015837805112823844
v -0.011762039735913277 0.007764069363474846 0.0015837805112823844
v -0.011360019445419312 0.004777052905410528 0.0021852359641343355
v -0.011472606100142002 0.007774938363581896 0.0021852359641343355
v -0.011360019445419312 0.004777052905410528 0.0021852359641343355
v -0.011472606100142002 0.007774938363581896 0.0021852359641343355
v -0.010838469490408897 0.00479663722217083 0.00260145147331059
v -0.010951048694550991 0.007794525008648634 0.00260145147331059
v -0.010838469490408897 0.00479663722217083 0.00260145147331059
v -0.010951048694550991 0.007794525008648634 0.00260145147331059
v -0.01018810085952282 0.004821060691028833 0.002750001149252057
v -0.010300680994987488 0.007818947546184063 0.002750001149252057
v -0.01018810085952282 0.004821060691028833 0.002750001149252057
v -0.010300680994987488 0.007818947546184063 0.002750001149252057
v -0.009537733159959316 0.00484548369422555 0.00260145147331059
v -0.00965031422674656 0.007843374274671078 0.00260145147331059
v -0.009537733159959316 0.00484548369422555 0.00260145147331059
v -0.00965031422674656 0.007843374274671078 0.00260145147331059
v -0.009016177617013454 0.004865074064582586 0.0021852359641343355
v -0.009128764271736145 0.007862959057092667 0.0021852359641343355
v -0.009016177617013454 0.004865074064582586 0.0021852359641343355
v -0.009128764271736145 0.007862959057092667 0.0021852359641343355
v -0.008726735599339008 0.004875941667705774 0.0015837805112823844
v -0.008839322254061699 0.007873826660215855 0.0015837805112823844
v -0.008726735599339008 0.004875941667705774 0.0015837805112823844
v -0.008839322254061699 0.007873826660215855 0.0015837805112823844
v -0.008726735599339008 0.004875941667705774 0.0009162196656689048
v -0.008839322254061699 0.007873826660215855 0.0009162196656689048
v -0.008726735599339008 0.004875941667705774 0.0009162196656689048
v -0.008839322254061699 0.007873826660215855 0.0009162196656689048
v -0.009016177617013454 0.004865074064582586 0.0003147640672978014
v -0.009128764271736145 0.007862959057092667 0.0003147640672978014
v -0.009016177617013454 0.004865074064582586 0.0003147640672978014
v -0.009128764271736145 0.007862959057092667 0.0003147640672978014
v -0.009537733159959316 0.00484548369422555 -0.0001014514418784529
v -0.00965031422674656 0.007843374274671078 -0.0001014514418784529
v -0.009537733159959316 0.00484548369422555 -0.0001014514418784529
v -0.00965031422674656 0.007843374274671078 -0.0001014514418784529
v -0.01018810085952282 0.004821060691028833 -0.0002500011178199202
v -0.010300680994987488 0.007818947546184063 -0.0002500011178199202
v -0.006190916523337364 0.004971171263605356 0.0017499992391094565
v 0.002083989093080163 0.005281927529722452 0.0017499992391094565
v -0.004192328546196222 0.005046227015554905 0.004250000696629286
v 0.0011553614167496562 0.005247053224593401 0.008599172346293926
v 0.0013037978205829859 0.005252626724541187 0.009249999187886715
v 0.002083989093080163 0.005281927529722452 0.013036065734922886
v -0.0005286862724460661 0.005183810368180275 0.00778760714456439
v 0.00013840616156812757 0.005208863411098719 0.00778760714456439
v 0.000739433104172349 0.005231434013694525 0.008077251724898815
v -0.009537733159959316 0.00484548369422555 0.00260145147331059
v -0.01018810085952282 0.004821060691028833 0.002750001149252057
v -0.01018810085952282 0.004821060691028833 0.004250000696629286
v -0.010838469490408897 0.00479663722217083 0.00260145147331059
v 0.0008394021424464881 0.0052351863123476505 0.013613703660666943
v -0.00019514419545885175 0.005196337588131428 0.01374999899417162
v 0.00013840616156812757 0.005208863411098719 0.010712391696870327
v -0.0005286862724460661 0.005183810368180275 0.010712391696870327
v 0.0018034521490335464 0.005271392408758402 0.01321410108357668
v 0.000739433104172349 0.005231434013694525 0.010422746650874615
v 0.0011553614167496562 0.005247053224593401 0.009900826029479504
v -0.009016177617013454 0.004865074064582586 0.0021852359641343355
v -0.008726735599339008 0.004875941667705774 0.0015837805112823844
v -0.008726735599339008 0.004875941667705774 0.0009162196656689048
v -0.006190916523337364 0.004971171263605356 -0.0017500004032626748
v -0.001229689340107143 0.0051574851386249065 0.013613703660666943
v -0.002193732187151909 0.005121281836181879 0.01321410108357668
v -0.001129721524193883 0.0051612406969070435 0.010422746650874615
v -0.009016177617013454 0.004865074064582586 0.0003147640672978014
v -0.009537733159959316 0.00484548369422555 -0.0001014514418784529
v -0.01018810085952282 0.004821060691028833 -0.0017500004032626748
v -0.01018810085952282 0.004821060691028833 -0.0002500011178199202
v -0.011114498600363731 0.00478626973927021 -0.0016031680861487985
v -0.010838469490408897 0.00479663722217083 -0.0001014514418784529
v -0.011950215324759483 0.004754886496812105 -0.0011770507553592324
v -0.011360019445419312 0.004777052905410528 0.0003147640672978014
v -0.011649460531771183 0.004766181576997042 0.0015837805112823844
v -0.013185983523726463 0.004708478692919016 0.0012499982258304954
v -0.011649460531771183 0.004766181576997042 0.0009162196656689048
v -0.013039256446063519 0.00471399025991559 0.0003229485300835222
v -0.012613440863788128 0.004729980602860451 -0.0005133567610755563
v -0.011114498600363731 0.00478626973927021 0.0041031683795154095
v -0.011950215324759483 0.004754886496812105 0.0036770508158951998
v -0.011360019445419312 0.004777052905410528 0.0021852359641343355
v -0.012613440863788128 0.004729980602860451 0.0030133568216115236
v -0.013039256446063519 0.00471399025991559 0.0021770515013486147
v -0.001129721524193883 0.0051612406969070435 0.008077251724898815
v -0.0015456415712833405 0.005145620554685593 0.008599172346293926
v -0.004192328546196222 0.005046227015554905 0.009750000201165676
v -0.0016940849600359797 0.00514004472643137 0.009249999187886715
v -0.00405612587928772 0.005051340442150831 0.010785275138914585
v -0.0015456415712833405 0.005145620554685593 0.009900826029479504
v -0.0036568068899214268 0.005066338926553726 0.011750000528991222
v -0.0030215808656066656 0.0050901928916573524 0.012578426860272884
v 0.003722366178408265 0.007468065712600946 0.009750000201165676
v 0.0036894534714519978 0.008344332687556744 0.009750000201165676
v 0.003689752658829093 0.007424548268318176 0.010272105224430561
v 0.003689752658829093 0.007424548268318176 0.010272105224430561
v 0.0036894534714519978 0.008344332687556744 0.009750000201165676
v 0.0035532591864466667 0.00833921879529953 0.010785275138914585
v 0.003689752658829093 0.007424548268318176 0.010272105224430561
v 0.0035532591864466667 0.00833921879529953 0.010785275138914585
v 0.0035924818366765976 0.00729475449770689 0.010785275138914585
v 0.0035924818366765976 0.00729475449770689 0.010785275138914585
v 0.0035532591864466667 0.00833921879529953 0.010785275138914585
v 0.0034322061110287905 0.007080898620188236 0.011280733160674572
v 0.0034322061110287905 0.007080898620188236 0.011280733160674572
v 0.0035532591864466667 0.00833921879529953 0.010785275138914585
v 0.003153938800096512 0.008324223570525646 0.011750000528991222
v 0.0034322061110287905 0.007080898620188236 0.011280733160674572
v 0.003153938800096512 0.008324223570525646 0.011750000528991222
v 0.003211680334061384 0.006786638870835304 0.011750000528991222
v 0.003211680334061384 0.006786638870835304 0.011750000528991222
v 0.003153938800096512 0.008324223570525646 0.011750000528991222
v 0.0029346649535000324 0.006417014170438051 0.012185045517981052
v 0.0029346649535000324 0.006417014170438051 0.012185045517981052
v 0.003153938800096512 0.008324223570525646 0.011750000528991222
v 0.002518705790862441 0.008300366811454296 0.012578426860272884
v 0.0029346649535000324 0.006417014170438051 0.012185045517981052
v 0.002518705790862441 0.008300366811454296 0.012578426860272884
v 0.0026059080846607685 0.005978341680020094 0.012578426860272884
v 0.0026059080846607685 0.005978341680020094 0.012578426860272884
v 0.002518705790862441 0.008300366811454296 0.012578426860272884
v 0.002083989093080163 0.005281927529722452 0.013036065734922886
v 0.002083989093080163 0.005281927529722452 0.013036065734922886
v 0.002518705790862441 0.008300366811454296 0.012578426860272884
v 0.0016908654943108559 0.008269277401268482 0.01321410108357668
v 0.002083989093080163 0.005281927529722452 0.013036065734922886
v 0.0016908654943108559 0.008269277401268482 0.01321410108357668
v 0.0018034521490335464 0.005271392408758402 0.01321410108357668
v 0.0018034521490335464 0.005271392408758402 0.01321410108357668
v 0.0016908654943108559 0.008269277401268482 0.01321410108357668
v 0.0007268224726431072 0.008233074098825455 0.013613703660666943
v 0.0008394021424464881 0.0052351863123476505 0.013613703660666943
v 0.0008394021424464881 0.0052351863123476505 0.013613703660666943
v 0.0007268224726431072 0.008233074098825455 0.013613703660666943
v -0.00030772387981414795 0.008194224908947945 0.01374999899417162
v -0.00019514419545885175 0.005196337588131428 0.01374999899417162
v -0.00019514419545885175 0.005196337588131428 0.01374999899417162
v -0.00030772387981414795 0.008194224908947945 0.01374999899417162
v -0.0013422690099105239 0.00815537292510271 0.013613703660666943
v -0.001229689340107143 0.0051574851386249065 0.013613703660666943
v -0.001229689340107143 0.0051574851386249065 0.013613703660666943
v -0.0013422690099105239 0.00815537292510271 0.013613703660666943
v -0.002306319074705243 0.00811916682869196 0.01321410108357668
v -0.002193732187151909 0.005121281836181879 0.01321410108357668
v -0.002193732187151909 0.005121281836181879 0.01321410108357668
v -0.002306319074705243 0.00811916682869196 0.01321410108357668
v -0.0031341605354100466 0.00808808021247387 0.012578426860272884
v -0.0030215808656066656 0.0050901928916573524 0.012578426860272884
v -0.0030215808656066656 0.0050901928916573524 0.012578426860272884
v -0.0031341605354100466 0.00808808021247387 0.012578426860272884
v -0.0037693865597248077 0.008064226247370243 0.011750000528991222
v -0.0036568068899214268 0.005066338926553726 0.011750000528991222
v -0.0036568068899214268 0.005066338926553726 0.011750000528991222
v -0.0037693865597248077 0.008064226247370243 0.011750000528991222
v -0.004168705549091101 0.008049228228628635 0.010785275138914585
v -0.00405612587928772 0.005051340442150831 0.010785275138914585
v -0.00405612587928772 0.005051340442150831 0.010785275138914585
v -0.004168705549091101 0.008049228228628635 0.010785275138914585
v -0.004304908215999603 0.008044114336371422 0.009750000201165676
v -0.004192328546196222 0.005046227015554905 0.009750000201165676
v 0.0036894534714519978 0.008344332687556744 0.009750000201165676
v 0.003722366178408265 0.007468065712600946 0.009750000201165676
v 0.003722366178408265 0.007468065712600946 0.0017499992391094565
v 0.0042720031924545765 -0.007167841773480177 0.009750000201165676
v 0.004304909612983465 -0.008044113405048847 0.009750000201165676
v 0.0042720031924545765 -0.007167841773480177 0.0017499992391094565
v 0.004304909612983465 -0.008044113405048847 -0.0017500004032626748
v 0.0036894534714519978 0.008344332687556744 -0.0017500004032626748
v 0.003134161699563265 -0.008088079281151295 0.012578426860272884
v 0.003769387025386095 -0.00806422345340252 0.011750000528991222
v 0.00371164595708251 -0.006526641082018614 0.011750000528991222
v 0.0024742709938436747 -0.005110747180879116 0.013036065734922886
v 0.002306313719600439 -0.008119170553982258 0.01321410108357668
v 0.0030469598714262247 -0.005766056012362242 0.012578426860272884
v 0.0030469598714262247 -0.005766056012362242 0.012578426860272884
v 0.002306313719600439 -0.008119170553982258 0.01321410108357668
v 0.003134161699563265 -0.008088079281151295 0.012578426860272884
v 0.0030469598714262247 -0.005766056012362242 0.012578426860272884
v 0.003134161699563265 -0.008088079281151295 0.012578426860272884
v 0.0034076888114213943 -0.006178833544254303 0.012185045517981052
v 0.0034076888114213943 -0.006178833544254303 0.012185045517981052
v 0.003134161699563265 -0.008088079281151295 0.012578426860272884
v 0.00371164595708251 -0.006526641082018614 0.011750000528991222
v 0.00416870741173625 -0.00804922915995121 0.010785275138914585
v 0.004304909612983465 -0.008044113405048847 0.009750000201165676
v 0.0042720031924545765 -0.007167841773480177 0.009750000201165676
v 0.0042720031924545765 -0.007167841773480177 0.009750000201165676
v 0.0042362213134765625 -0.007126898039132357 0.010272105224430561
v 0.00416870741173625 -0.00804922915995121 0.010785275138914585
v 0.00416870741173625 -0.00804922915995121 0.010785275138914585
v 0.0042362213134765625 -0.007126898039132357 0.010272105224430561
v 0.004129484761506319 -0.00700476486235857 0.010785275138914585
v 0.00416870741173625 -0.00804922915995121 0.010785275138914585
v 0.004129484761506319 -0.00700476486235857 0.010785275138914585
v 0.003769387025386095 -0.00806422345340252 0.011750000528991222
v 0.003769387025386095 -0.00806422345340252 0.011750000528991222
v 0.004129484761506319 -0.00700476486235857 0.010785275138914585
v 0.003953621257096529 -0.006803532596677542 0.011280733160674572
v 0.003769387025386095 -0.00806422345340252 0.011750000528991222
v 0.003953621257096529 -0.006803532596677542 0.011280733160674572
v 0.00371164595708251 -0.006526641082018614 0.011750000528991222
v 0.0024742709938436747 -0.005110747180879116 0.013036065734922886
v 0.002193734049797058 -0.005121282767504454 0.01321410108357668
v 0.002306313719600439 -0.008119170553982258 0.01321410108357668
v 0.002306313719600439 -0.008119170553982258 0.01321410108357668
v 0.002193734049797058 -0.005121282767504454 0.01321410108357668
v 0.0012296910863369703 -0.005157486069947481 0.013613703660666943
v 0.0013422707561403513 -0.008155373856425285 0.013613703660666943
v 0.0013422707561403513 -0.008155373856425285 0.013613703660666943
v 0.0012296910863369703 -0.005157486069947481 0.013613703660666943
v 0.00019514531595632434 -0.005196336656808853 0.01374999899417162
v 0.0003077249857597053 -0.00819422397762537 0.01374999899417162
v 0.0003077249857597053 -0.00819422397762537 0.01374999899417162
v 0.00019514531595632434 -0.005196336656808853 0.01374999899417162
v -0.0008394003962166607 -0.005235187243670225 0.013613703660666943
v -0.0007268207264132798 -0.00823307503014803 0.013613703660666943
v -0.0007268207264132798 -0.00823307503014803 0.013613703660666943
v -0.0008394003962166607 -0.005235187243670225 0.013613703660666943
v -0.001803450402803719 -0.0052713933400809765 0.01321410108357668
v -0.0016908637480810285 -0.008269278332591057 0.01321410108357668
v -0.0016908637480810285 -0.008269278332591057 0.01321410108357668
v -0.001803450402803719 -0.0052713933400809765 0.01321410108357668
v -0.0026312912814319134 -0.0053024813532829285 0.012578426860272884
v -0.0025187116116285324 -0.008300368674099445 0.012578426860272884
v -0.0025187116116285324 -0.008300368674099445 0.012578426860272884
v -0.0026312912814319134 -0.0053024813532829285 0.012578426860272884
v -0.0032665173057466745 -0.005326335318386555 0.011750000528991222
v -0.0031539376359432936 -0.008324222639203072 0.011750000528991222
v -0.0031539376359432936 -0.008324222639203072 0.011750000528991222
v -0.0032665173057466745 -0.005326335318386555 0.011750000528991222
v -0.0036658376920968294 -0.0053413305431604385 0.010785275138914585
v -0.0035532573238015175 -0.008339219726622105 0.010785275138914585
v -0.0035532573238015175 -0.008339219726622105 0.010785275138914585
v -0.0036658376920968294 -0.0053413305431604385 0.010785275138914585
v -0.0038020391948521137 -0.005346447229385376 0.009750000201165676
v -0.0036894595250487328 -0.008344334550201893 0.009750000201165676
v -0.010969736613333225 -0.005615623667836189 0.0021852359641343355
v -0.011259172111749649 -0.005626488942652941 0.0015837805112823844
v -0.012648973613977432 -0.005678686313331127 0.0021770515013486147
v -0.0011553596705198288 -0.005247054155915976 0.009900826029479504
v -0.001303803059272468 -0.0052526299841701984 0.009249999187886715
v -0.0038020391948521137 -0.005346447229385376 0.009750000201165676
v 0.0005286880186758935 -0.00518381129950285 0.00778760714456439
v 0.0011297219898551702 -0.005161238368600607 0.008077251724898815
v 0.0024742709938436747 -0.005110747180879116 0.0017499992391094565
v -0.0038020391948521137 -0.005346447229385376 0.004250000696629286
v -0.0011553596705198288 -0.005247054155915976 0.008599172346293926
v -0.0007394319982267916 -0.00523143308237195 0.008077251724898815
v -0.000138405041070655 -0.005208862479776144 0.00778760714456439
v -0.012795702554285526 -0.00568419462069869 0.0012499982258304954
v -0.011259172111749649 -0.005626488942652941 0.0009162196656689048
v -0.012648973613977432 -0.005678686313331127 0.0003229485300835222
v -0.01222315151244402 -0.00566269364207983 -0.0005133567610755563
v -0.010969736613333225 -0.005615623667836189 0.0003147640672978014
v -0.01155992690473795 -0.005637784488499165 -0.0011770507553592324
v -0.010448180139064789 -0.005596037022769451 -0.0001014514418784529
v -0.010724210180342197 -0.005606400780379772 -0.0016031680861487985
v -0.00979781337082386 -0.005571610294282436 -0.0017500004032626748
v -0.00979781337082386 -0.005571610294282436 -0.0002500011178199202
v -0.0058006285689771175 -0.0054214997217059135 -0.0017500004032626748
v -0.01222315151244402 -0.00566269364207983 0.0030133568216115236
v -0.01155992690473795 -0.005637784488499165 0.0036770508158951998
v -0.010448180139064789 -0.005596037022769451 0.00260145147331059
v -0.010724210180342197 -0.005606400780379772 0.0041031683795154095
v -0.00979781337082386 -0.005571610294282436 0.002750001149252057
v -0.00979781337082386 -0.005571610294282436 0.004250000696629286
v -0.009147444739937782 -0.005547186825424433 0.00260145147331059
v -0.008625894784927368 -0.0055276029743254185 0.0021852359641343355
v 0.0024742709938436747 -0.005110747180879116 0.013036065734922886
v 0.0011297219898551702 -0.005161238368600607 0.010422746650874615
v 0.002193734049797058 -0.005121282767504454 0.01321410108357668
v 0.0005286880186758935 -0.00518381129950285 0.010712391696870327
v -0.0036658376920968294 -0.0053413305431604385 0.010785275138914585
v -0.0032665173057466745 -0.005326335318386555 0.011750000528991222
v -0.0007394319982267916 -0.00523143308237195 0.010422746650874615
v -0.008336453698575497 -0.005516731180250645 0.0015837805112823844
v -0.0058006285689771175 -0.0054214997217059135 0.0017499992391094565
v 0.001545643201097846 -0.005145621486008167 0.008599172346293926
v 0.001545643201097846 -0.005145621486008167 0.008599172346293926
v 0.0016940867062658072 -0.005140045657753944 0.009249999187886715
v 0.001545643201097846 -0.005145621486008167 0.009900826029479504
v -0.0026312912814319134 -0.0053024813532829285 0.012578426860272884
v -0.001803450402803719 -0.0052713933400809765 0.01321410108357668
v -0.000138405041070655 -0.005208862479776144 0.010712391696870327
v -0.0008394003962166607 -0.005235187243670225 0.013613703660666943
v 0.00019514531595632434 -0.005196336656808853 0.01374999899417162
v 0.0012296910863369703 -0.005157486069947481 0.013613703660666943
v -0.009147444739937782 -0.005547186825424433 -0.0001014514418784529
v -0.008625894784927368 -0.0055276029743254185 0.0003147640672978014
v -0.008336453698575497 -0.005516731180250645 0.0009162196656689048
v 0.0024742709938436747 -0.005110747180879116 0.0017499992391094565
v 0.0042720031924545765 -0.007167841773480177 0.0017499992391094565
v 0.002083989093080163 0.005281927529722452 0.0017499992391094565
v 0.003722366178408265 0.007468065712600946 0.0017499992391094565
v -0.004298128187656403 0.0038067500572651625 0.0017499992391094565
v -0.0014145711902529001 -0.0004989832523278892 0.0017499992391094565
v -0.0014909900492057204 0.00016419132589362562 0.0017499992391094565
v 0.0010579813970252872 0.001063329167664051 0.0017499992391094565
v 0.0014145723544061184 0.0004989839508198202 0.0017499992391094565
v 0.001490984228439629 -0.00016419308667536825 0.0017499992391094565
v 0.0012720893137156963 -0.0007948472048155963 0.0017499992391094565
v 0.0008012468460947275 -0.001268071704544127 0.0017499992391094565
v 0.0001717012346489355 -0.0014901410322636366 0.0017499992391094565
v -0.0004918525228276849 -0.0014170694630593061 0.0017499992391094565
v -0.006190916523337364 0.004971171263605356 0.0017499992391094565
v -0.005420377012342215 0.004847759380936623 0.0017499992391094565
v -0.004755719564855099 0.004438870120793581 0.0017499992391094565
v -0.0012720952508971095 0.0007948454585857689 0.0017499992391094565
v -0.0008012457401491702 0.001268072403036058 0.0017499992391094565
v -0.0001717001141514629 0.0014901417307555676 0.0017499992391094565
v 0.0004918466438539326 0.0014170677168294787 0.0017499992391094565
v -0.0041172681376338005 0.003047636477276683 0.0017499992391094565
v -0.003877092618495226 -0.0033478543628007174 0.0017499992391094565
v -0.0010579873342067003 -0.0010633309138938785 0.0017499992391094565
v -0.004000503104180098 -0.004118397366255522 0.0017499992391094565
v -0.004409396089613438 -0.0047830562107264996 0.0017499992391094565
v -0.005041512195020914 -0.005240646656602621 0.0017499992391094565
v -0.0058006285689771175 -0.0054214997217059135 0.0017499992391094565
v -0.001242301193997264 0.00815912801772356 0.008077251724898815
v -0.0006412742077372968 0.008181698620319366 0.00778760714456439
v -0.004304908215999603 0.008044114336371422 0.004250000696629286
v -0.004168705549091101 0.008049228228628635 0.010785275138914585
v -0.0037693865597248077 0.008064226247370243 0.011750000528991222
v -0.001658228226006031 0.008143505081534386 0.009900826029479504
v -0.001242301193997264 0.00815912801772356 0.010422746650874615
v 0.0036894534714519978 0.008344332687556744 -0.0017500004032626748
v -0.011762039735913277 0.007764069363474846 0.0009162196656689048
v -0.013298572041094303 0.007706366945058107 0.0012499982258304954
v -0.011762039735913277 0.007764069363474846 0.0015837805112823844
v -0.013151843100786209 0.007711875252425671 0.0021770515013486147
v -0.011472606100142002 0.007774938363581896 0.0021852359641343355
v -0.004304908215999603 0.008044114336371422 0.009750000201165676
v -0.0018066716147586703 0.008137930184602737 0.009249999187886715
v -0.001658228226006031 0.008143505081534386 0.008599172346293926
v -0.010951048694550991 0.007794525008648634 -0.0001014514418784529
v -0.010300680994987488 0.007818947546184063 -0.0002500011178199202
v -0.010300680994987488 0.007818947546184063 -0.0017500004032626748
v -0.00965031422674656 0.007843374274671078 -0.0001014514418784529
v -0.008839322254061699 0.007873826660215855 0.0015837805112823844
v -0.008839322254061699 0.007873826660215855 0.0009162196656689048
v -0.009128764271736145 0.007862959057092667 0.0003147640672978014
v -0.012726020067930222 0.007727867923676968 0.0030133568216115236
v -0.012062794528901577 0.007752773817628622 0.0036770508158951998
v -0.010951048694550991 0.007794525008648634 0.00260145147331059
v -0.011227079667150974 0.007784160785377026 0.0041031683795154095
v -0.010300680994987488 0.007818947546184063 0.002750001149252057
v -0.010300680994987488 0.007818947546184063 0.004250000696629286
v -0.00965031422674656 0.007843374274671078 0.00260145147331059
v -0.009128764271736145 0.007862959057092667 0.0021852359641343355
v 2.5819463189691305e-05 0.008206748403608799 0.00778760714456439
v 0.000626853434368968 0.008229321800172329 0.008077251724898815
v 0.0036894534714519978 0.008344332687556744 0.009750000201165676
v -0.0031341605354100466 0.00808808021247387 0.012578426860272884
v -0.002306319074705243 0.00811916682869196 0.01321410108357668
v -0.0006412742077372968 0.008181698620319366 0.010712391696870327
v -0.0013422690099105239 0.00815537292510271 0.013613703660666943
v -0.00030772387981414795 0.008194224908947945 0.01374999899417162
v 2.5819463189691305e-05 0.008206748403608799 0.010712391696870327
v 0.0010427746456116438 0.008244938217103481 0.008599172346293926
v 0.0010427746456116438 0.008244938217103481 0.008599172346293926
v 0.001191218150779605 0.008250514045357704 0.009249999187886715
v 0.0035532591864466667 0.00833921879529953 0.010785275138914585
v 0.0010427746456116438 0.008244938217103481 0.009900826029479504
v 0.003153938800096512 0.008324223570525646 0.011750000528991222
v 0.000626853434368968 0.008229321800172329 0.010422746650874615
v 0.0007268224726431072 0.008233074098825455 0.013613703660666943
v 0.0016908654943108559 0.008269277401268482 0.01321410108357668
v 0.002518705790862441 0.008300366811454296 0.012578426860272884
v -0.011227079667150974 0.007784160785377026 -0.0016031680861487985
v -0.012062794528901577 0.007752773817628622 -0.0011770507553592324
v -0.011472606100142002 0.007774938363581896 0.0003147640672978014
v -0.012726020067930222 0.007727867923676968 -0.0005133567610755563
v -0.013151843100786209 0.007711875252425671 0.0003229485300835222
v -0.0041172681376338005 0.003047636477276683 -0.0017500004032626748
v -0.003877092618495226 -0.0033478543628007174 -0.0017500004032626748
v -0.0041172681376338005 0.003047636477276683 0.0017499992391094565
v -0.003877092618495226 -0.0033478543628007174 0.0017499992391094565
v 0.0016582299722358584 -0.008143506944179535 0.009900826029479504
v 0.0018066663760691881 -0.008137932978570461 0.009249999187886715
v 0.004304909612983465 -0.008044113405048847 0.009750000201165676
v 0.0016582299722358584 -0.008143506944179535 0.008599172346293926
v 0.004304909612983465 -0.008044113405048847 -0.0017500004032626748
v 0.002306313719600439 -0.008119170553982258 0.01321410108357668
v 0.000641274731606245 -0.008181696757674217 0.010712391696870327
v 0.0012423016596585512 -0.008159126155078411 0.010422746650874615
v -0.009034864604473114 -0.008545076474547386 0.00260145147331059
v -0.008513308130204678 -0.008525487966835499 0.0021852359641343355
v -0.0036894595250487328 -0.008344334550201893 0.004250000696629286
v -0.008223867043852806 -0.008514618501067162 0.0015837805112823844
v 0.0012423016596585512 -0.008159126155078411 0.008077251724898815
v 0.000641274731606245 -0.008181696757674217 0.00778760714456439
v -2.5817724235821515e-05 -0.008206749334931374 0.00778760714456439
v 0.0013422707561403513 -0.008155373856425285 0.013613703660666943
v 0.0003077249857597053 -0.00819422397762537 0.01374999899417162
v -2.5817724235821515e-05 -0.008206749334931374 0.010712391696870327
v 0.00416870741173625 -0.00804922915995121 0.010785275138914585
v 0.003769387025386095 -0.00806422345340252 0.011750000528991222
v 0.003134161699563265 -0.008088079281151295 0.012578426860272884
v -0.008223867043852806 -0.008514618501067162 0.0009162196656689048
v -0.008513308130204678 -0.008525487966835499 0.0003147640672978014
v -0.009685232304036617 -0.008569499477744102 -0.0017500004032626748
v -0.0007268207264132798 -0.00823307503014803 0.013613703660666943
v -0.0016908637480810285 -0.008269278332591057 0.01321410108357668
v -0.0006268523284234107 -0.008229320868849754 0.010422746650874615
v -0.010857149958610535 -0.008613508194684982 0.0003147640672978014
v -0.011447346769273281 -0.00863567367196083 -0.0011770507553592324
v -0.010335600934922695 -0.008593922480940819 -0.0001014514418784529
v -0.01061163004487753 -0.008604289963841438 -0.0016031680861487985
v -0.009685232304036617 -0.008569499477744102 -0.0002500011178199202
v -0.009034864604473114 -0.008545076474547386 -0.0001014514418784529
v -0.009685232304036617 -0.008569499477744102 0.002750001149252057
v -0.009685232304036617 -0.008569499477744102 0.004250000696629286
v -0.010335600934922695 -0.008593922480940819 0.00260145147331059
v -0.0025187116116285324 -0.008300368674099445 0.012578426860272884
v -0.0031539376359432936 -0.008324222639203072 0.011750000528991222
v -0.0010427728993818164 -0.008244939148426056 0.009900826029479504
v -0.0035532573238015175 -0.008339219726622105 0.010785275138914585
v -0.0011912164045497775 -0.008250514976680279 0.009249999187886715
v -0.0036894595250487328 -0.008344334550201893 0.009750000201165676
v -0.0010427728993818164 -0.008244939148426056 0.008599172346293926
v -0.0006268523284234107 -0.008229320868849754 0.008077251724898815
v -0.01114659197628498 -0.008624378591775894 0.0015837805112823844
v -0.012683115899562836 -0.00868207961320877 0.0012499982258304954
v -0.01114659197628498 -0.008624378591775894 0.0009162196656689048
v -0.012536387890577316 -0.008676569908857346 0.0003229485300835222
v -0.012110572308301926 -0.008660579100251198 -0.0005133567610755563
v -0.01061163004487753 -0.008604289963841438 0.0041031683795154095
v -0.011447346769273281 -0.00863567367196083 0.0036770508158951998
v -0.010857149958610535 -0.008613508194684982 0.0021852359641343355
v -0.012110572308301926 -0.008660579100251198 0.0030133568216115236
v -0.012536387890577316 -0.008676569908857346 0.0021770515013486147
v 0.0042720031924545765 -0.007167841773480177 0.0017499992391094565
v 0.0024742709938436747 -0.005110747180879116 0.0017499992391094565
v 0.0042720031924545765 -0.007167841773480177 0.009750000201165676
v 0.0024742709938436747 -0.005110747180879116 0.013036065734922886
v 0.0030469598714262247 -0.005766056012362242 0.012578426860272884
v 0.0042720031924545765 -0.007167841773480177 0.009750000201165676
v 0.0030469598714262247 -0.005766056012362242 0.012578426860272884
v 0.0034076888114213943 -0.006178833544254303 0.012185045517981052
v 0.0034076888114213943 -0.006178833544254303 0.012185045517981052
v 0.00371164595708251 -0.006526641082018614 0.011750000528991222
v 0.00371164595708251 -0.006526641082018614 0.011750000528991222
v 0.003953621257096529 -0.006803532596677542 0.011280733160674572
v 0.0042720031924545765 -0.007167841773480177 0.009750000201165676
v 0.003953621257096529 -0.006803532596677542 0.011280733160674572
v 0.004129484761506319 -0.00700476486235857 0.010785275138914585
v 0.0042362213134765625 -0.007126898039132357 0.010272105224430561
v 0.003211680334061384 0.006786638870835304 0.011750000528991222
v 0.0029346649535000324 0.006417014170438051 0.012185045517981052
v 0.003722366178408265 0.007468065712600946 0.009750000201165676
v 0.002083989093080163 0.005281927529722452 0.0017499992391094565
v 0.003722366178408265 0.007468065712600946 0.0017499992391094565
v 0.002083989093080163 0.005281927529722452 0.013036065734922886
v 0.003722366178408265 0.007468065712600946 0.009750000201165676
v 0.0026059080846607685 0.005978341680020094 0.012578426860272884
v 0.0029346649535000324 0.006417014170438051 0.012185045517981052
v 0.003689752658829093 0.007424548268318176 0.010272105224430561
v 0.0035924818366765976 0.00729475449770689 0.010785275138914585
v 0.003722366178408265 0.007468065712600946 0.009750000201165676
v 0.0035924818366765976 0.00729475449770689 0.010785275138914585
v 0.0034322061110287905 0.007080898620188236 0.011280733160674572
v 0.0034322061110287905 0.007080898620188236 0.011280733160674572
v 0.003211680334061384 0.006786638870835304 0.011750000528991222
v -0.009685232304036617 -0.008569499477744102 -0.0002500011178199202
v -0.00979781337082386 -0.005571610294282436 -0.0002500011178199202
v -0.010335600934922695 -0.008593922480940819 -0.0001014514418784529
v -0.010448180139064789 -0.005596037022769451 -0.0001014514418784529
v -0.010335600934922695 -0.008593922480940819 -0.0001014514418784529
v -0.010448180139064789 -0.005596037022769451 -0.0001014514418784529
v -0.010857149958610535 -0.008613508194684982 0.0003147640672978014
v -0.010969736613333225 -0.005615623667836189 0.0003147640672978014
v -0.010857149958610535 -0.008613508194684982 0.0003147640672978014
v -0.010969736613333225 -0.005615623667836189 0.0003147640672978014
v -0.01114659197628498 -0.008624378591775894 0.0009162196656689048
v -0.011259172111749649 -0.005626488942652941 0.0009162196656689048
v -0.01114659197628498 -0.008624378591775894 0.0009162196656689048
v -0.011259172111749649 -0.005626488942652941 0.0009162196656689048
v -0.01114659197628498 -0.008624378591775894 0.0015837805112823844
v -0.011259172111749649 -0.005626488942652941 0.0015837805112823844
v -0.01114659197628498 -0.008624378591775894 0.0015837805112823844
v -0.011259172111749649 -0.005626488942652941 0.0015837805112823844
v -0.010857149958610535 -0.008613508194684982 0.0021852359641343355
v -0.010969736613333225 -0.005615623667836189 0.0021852359641343355
v -0.010857149958610535 -0.008613508194684982 0.0021852359641343355
v -0.010969736613333225 -0.005615623667836189 0.0021852359641343355
v -0.010335600934922695 -0.008593922480940819 0.00260145147331059
v -0.010448180139064789 -0.005596037022769451 0.00260145147331059
v -0.010335600934922695 -0.008593922480940819 0.00260145147331059
v -0.010448180139064789 -0.005596037022769451 0.00260145147331059
v -0.009685232304036617 -0.008569499477744102 0.002750001149252057
v -0.00979781337082386 -0.005571610294282436 0.002750001149252057
v -0.009685232304036617 -0.008569499477744102 0.002750001149252057
v -0.00979781337082386 -0.005571610294282436 0.002750001149252057
v -0.009034864604473114 -0.008545076474547386 0.00260145147331059
v -0.009147444739937782 -0.005547186825424433 0.00260145147331059
v -0.009034864604473114 -0.008545076474547386 0.00260145147331059
v -0.009147444739937782 -0.005547186825424433 0.00260145147331059
v -0.008513308130204678 -0.008525487966835499 0.0021852359641343355
v -0.008625894784927368 -0.0055276029743254185 0.0021852359641343355
v -0.008513308130204678 -0.008525487966835499 0.0021852359641343355
v -0.008625894784927368 -0.0055276029743254185 0.0021852359641343355
v -0.008223867043852806 -0.008514618501067162 0.0015837805112823844
v -0.008336453698575497 -0.005516731180250645 0.0015837805112823844
v -0.008223867043852806 -0.008514618501067162 0.0015837805112823844
v -0.008336453698575497 -0.005516731180250645 0.0015837805112823844
v -0.008223867043852806 -0.008514618501067162 0.0009162196656689048
v -0.008336453698575497 -0.005516731180250645 0.0009162196656689048
v -0.008223867043852806 -0.008514618501067162 0.0009162196656689048
v -0.008336453698575497 -0.005516731180250645 0.0009162196656689048
v -0.008513308130204678 -0.008525487966835499 0.0003147640672978014
v -0.008625894784927368 -0.0055276029743254185 0.0003147640672978014
v -0.008513308130204678 -0.008525487966835499 0.0003147640672978014
v -0.008625894784927368 -0.0055276029743254185 0.0003147640672978014
v -0.009034864604473114 -0.008545076474547386 -0.0001014514418784529
v -0.009147444739937782 -0.005547186825424433 -0.0001014514418784529
v -0.009034864604473114 -0.008545076474547386 -0.0001014514418784529
v -0.009147444739937782 -0.005547186825424433 -0.0001014514418784529
v -0.009685232304036617 -0.008569499477744102 -0.0002500011178199202
v -0.00979781337082386 -0.005571610294282436 -0.0002500011178199202
v -0.003877092618495226 -0.0033478543628007174 0.0017499992391094565
v -0.003877092618495226 -0.0033478543628007174 -0.0017500004032626748
v -0.004000503104180098 -0.004118397366255522 0.0017499992391094565
v -0.004000503104180098 -0.004118397366255522 -0.0017500004032626748
v -0.004000503104180098 -0.004118397366255522 0.0017499992391094565
v -0.004000503104180098 -0.004118397366255522 -0.0017500004032626748
v -0.004409396089613438 -0.0047830562107264996 0.0017499992391094565
v -0.004409396089613438 -0.0047830562107264996 -0.0017500004032626748
v -0.004409396089613438 -0.0047830562107264996 0.0017499992391094565
v -0.004409396089613438 -0.0047830562107264996 -0.0017500004032626748
v -0.005041512195020914 -0.005240646656602621 0.0017499992391094565
v -0.005041512195020914 -0.005240646656602621 -0.0017500004032626748
v -0.005041512195020914 -0.005240646656602621 0.0017499992391094565
v -0.005041512195020914 -0.005240646656602621 -0.0017500004032626748
v -0.0058006285689771175 -0.0054214997217059135 0.0017499992391094565
v -0.0058006285689771175 -0.0054214997217059135 -0.0017500004032626748
v -0.006190916523337364 0.004971171263605356 0.0017499992391094565
v -0.006190916523337364 0.004971171263605356 -0.0017500004032626748
v -0.005420377012342215 0.004847759380936623 0.0017499992391094565
v -0.005420377012342215 0.004847759380936623 -0.0017500004032626748
v -0.005420377012342215 0.004847759380936623 0.0017499992391094565
v -0.005420377012342215 0.004847759380936623 -0.0017500004032626748
v -0.004755719564855099 0.004438870120793581 0.0017499992391094565
v -0.004755719564855099 0.004438870120793581 -0.0017500004032626748
v -0.004755719564855099 0.004438870120793581 0.0017499992391094565
v -0.004755719564855099 0.004438870120793581 -0.0017500004032626748
v -0.004298128187656403 0.0038067500572651625 0.0017499992391094565
v -0.004298128187656403 0.0038067500572651625 -0.0017500004032626748
v -0.004298128187656403 0.0038067500572651625 0.0017499992391094565
v -0.004298128187656403 0.0038067500572651625 -0.0017500004032626748
v -0.0041172681376338005 0.003047636477276683 0.0017499992391094565
v -0.0041172681376338005 0.003047636477276683 -0.0017500004032626748
v -0.013185983523726463 0.004708478692919016 0.0012499982258304954
v -0.013298572041094303 0.007706366945058107 0.0012499982258304954
v -0.013151843100786209 0.007711875252425671 0.0003229485300835222
v -0.013039256446063519 0.00471399025991559 0.0003229485300835222
v -0.013039256446063519 0.00471399025991559 0.0003229485300835222
v -0.013151843100786209 0.007711875252425671 0.0003229485300835222
v -0.012726020067930222 0.007727867923676968 -0.0005133567610755563
v -0.012613440863788128 0.004729980602860451 -0.0005133567610755563
v -0.012613440863788128 0.004729980602860451 -0.0005133567610755563
v -0.012726020067930222 0.007727867923676968 -0.0005133567610755563
v -0.012062794528901577 0.007752773817628622 -0.0011770507553592324
v -0.011950215324759483 0.004754886496812105 -0.0011770507553592324
v -0.011950215324759483 0.004754886496812105 -0.0011770507553592324
v -0.012062794528901577 0.007752773817628622 -0.0011770507553592324
v -0.011227079667150974 0.007784160785377026 -0.0016031680861487985
v -0.011114498600363731 0.00478626973927021 -0.0016031680861487985
v -0.011114498600363731 0.00478626973927021 -0.0016031680861487985
v -0.011227079667150974 0.007784160785377026 -0.0016031680861487985
v -0.010300680994987488 0.007818947546184063 -0.0017500004032626748
v -0.01018810085952282 0.004821060691028833 -0.0017500004032626748
v -0.013298572041094303 0.007706366945058107 0.0012499982258304954
v -0.013185983523726463 0.004708478692919016 0.0012499982258304954
v -0.013039256446063519 0.00471399025991559 0.0021770515013486147
v -0.013151843100786209 0.007711875252425671 0.0021770515013486147
v -0.013151843100786209 0.007711875252425671 0.0021770515013486147
v -0.013039256446063519 0.00471399025991559 0.0021770515013486147
v -0.012613440863788128 0.004729980602860451 0.0030133568216115236
v -0.012726020067930222 0.007727867923676968 0.0030133568216115236
v -0.012726020067930222 0.007727867923676968 0.0030133568216115236
v -0.012613440863788128 0.004729980602860451 0.0030133568216115236
v -0.011950215324759483 0.004754886496812105 0.0036770508158951998
v -0.012062794528901577 0.007752773817628622 0.0036770508158951998
v -0.012062794528901577 0.007752773817628622 0.0036770508158951998
v -0.011950215324759483 0.004754886496812105 0.0036770508158951998
v -0.011114498600363731 0.00478626973927021 0.0041031683795154095
v -0.011227079667150974 0.007784160785377026 0.0041031683795154095
v -0.011227079667150974 0.007784160785377026 0.0041031683795154095
v -0.011114498600363731 0.00478626973927021 0.0041031683795154095
v -0.01018810085952282 0.004821060691028833 0.004250000696629286
v -0.010300680994987488 0.007818947546184063 0.004250000696629286
v -0.012683115899562836 -0.00868207961320877 0.0012499982258304954
v -0.012795702554285526 -0.00568419462069869 0.0012499982258304954
v -0.012648973613977432 -0.005678686313331127 0.0003229485300835222
v -0.012536387890577316 -0.008676569908857346 0.0003229485300835222
v -0.012536387890577316 -0.008676569908857346 0.0003229485300835222
v -0.012648973613977432 -0.005678686313331127 0.0003229485300835222
v -0.01222315151244402 -0.00566269364207983 -0.0005133567610755563
v -0.012110572308301926 -0.008660579100251198 -0.0005133567610755563
v -0.012110572308301926 -0.008660579100251198 -0.0005133567610755563
v -0.01222315151244402 -0.00566269364207983 -0.0005133567610755563
v -0.01155992690473795 -0.005637784488499165 -0.0011770507553592324
v -0.011447346769273281 -0.00863567367196083 -0.0011770507553592324
v -0.011447346769273281 -0.00863567367196083 -0.0011770507553592324
v -0.01155992690473795 -0.005637784488499165 -0.0011770507553592324
v -0.010724210180342197 -0.005606400780379772 -0.0016031680861487985
v -0.01061163004487753 -0.008604289963841438 -0.0016031680861487985
v -0.01061163004487753 -0.008604289963841438 -0.0016031680861487985
v -0.010724210180342197 -0.005606400780379772 -0.0016031680861487985
v -0.00979781337082386 -0.005571610294282436 -0.0017500004032626748
v -0.009685232304036617 -0.008569499477744102 -0.0017500004032626748
v -0.012795702554285526 -0.00568419462069869 0.0012499982258304954
v -0.012683115899562836 -0.00868207961320877 0.0012499982258304954
v -0.012536387890577316 -0.008676569908857346 0.0021770515013486147
v -0.012648973613977432 -0.005678686313331127 0.0021770515013486147
v -0.012648973613977432 -0.005678686313331127 0.0021770515013486147
v -0.012536387890577316 -0.008676569908857346 0.0021770515013486147
v -0.012110572308301926 -0.008660579100251198 0.0030133568216115236
v -0.01222315151244402 -0.00566269364207983 0.0030133568216115236
v -0.01222315151244402 -0.00566269364207983 0.0030133568216115236
v -0.012110572308301926 -0.008660579100251198 0.0030133568216115236
v -0.011447346769273281 -0.00863567367196083 0.0036770508158951998
v -0.01155992690473795 -0.005637784488499165 0.0036770508158951998
v -0.01155992690473795 -0.005637784488499165 0.0036770508158951998
v -0.011447346769273281 -0.00863567367196083 0.0036770508158951998
v -0.01061163004487753 -0.008604289963841438 0.0041031683795154095
v -0.010724210180342197 -0.005606400780379772 0.0041031683795154095
v -0.010724210180342197 -0.005606400780379772 0.0041031683795154095
v -0.01061163004487753 -0.008604289963841438 0.0041031683795154095
v -0.009685232304036617 -0.008569499477744102 0.004250000696629286
v -0.00979781337082386 -0.005571610294282436 0.004250000696629286
v -0.001303803059272468 -0.0052526299841701984 0.009249999187886715
v -0.0011912164045497775 -0.008250514976680279 0.009249999187886715
v -0.0011553596705198288 -0.005247054155915976 0.008599172346293926
v -0.0010427728993818164 -0.008244939148426056 0.008599172346293926
v -0.0011553596705198288 -0.005247054155915976 0.008599172346293926
v -0.0010427728993818164 -0.008244939148426056 0.008599172346293926
v -0.0007394319982267916 -0.00523143308237195 0.008077251724898815
v -0.0006268523284234107 -0.008229320868849754 0.008077251724898815
v -0.0007394319982267916 -0.00523143308237195 0.008077251724898815
v -0.0006268523284234107 -0.008229320868849754 0.008077251724898815
v -0.000138405041070655 -0.005208862479776144 0.00778760714456439
v -2.5817724235821515e-05 -0.008206749334931374 0.00778760714456439
v -0.000138405041070655 -0.005208862479776144 0.00778760714456439
v -2.5817724235821515e-05 -0.008206749334931374 0.00778760714456439
v 0.0005286880186758935 -0.00518381129950285 0.00778760714456439
v 0.000641274731606245 -0.008181696757674217 0.00778760714456439
v 0.0005286880186758935 -0.00518381129950285 0.00778760714456439
v 0.000641274731606245 -0.008181696757674217 0.00778760714456439
v 0.0011297219898551702 -0.005161238368600607 0.008077251724898815
v 0.0012423016596585512 -0.008159126155078411 0.008077251724898815
v 0.0011297219898551702 -0.005161238368600607 0.008077251724898815
v 0.0012423016596585512 -0.008159126155078411 0.008077251724898815
v 0.001545643201097846 -0.005145621486008167 0.008599172346293926
v 0.0016582299722358584 -0.008143506944179535 0.008599172346293926
v 0.001545643201097846 -0.005145621486008167 0.008599172346293926
v 0.0016582299722358584 -0.008143506944179535 0.008599172346293926
v 0.0016940867062658072 -0.005140045657753944 0.009249999187886715
v 0.0016940867062658072 -0.005140045657753944 0.009249999187886715
v 0.0016582299722358584 -0.008143506944179535 0.008599172346293926
v 0.0018066663760691881 -0.008137932978570461 0.009249999187886715
v 0.0016940867062658072 -0.005140045657753944 0.009249999187886715
v 0.0018066663760691881 -0.008137932978570461 0.009249999187886715
v 0.001545643201097846 -0.005145621486008167 0.009900826029479504
v 0.001545643201097846 -0.005145621486008167 0.009900826029479504
v 0.0018066663760691881 -0.008137932978570461 0.009249999187886715
v 0.0016582299722358584 -0.008143506944179535 0.009900826029479504
v 0.001545643201097846 -0.005145621486008167 0.009900826029479504
v 0.0016582299722358584 -0.008143506944179535 0.009900826029479504
v 0.0011297219898551702 -0.005161238368600607 0.010422746650874615
v 0.0012423016596585512 -0.008159126155078411 0.010422746650874615
v 0.0011297219898551702 -0.005161238368600607 0.010422746650874615
v 0.0012423016596585512 -0.008159126155078411 0.010422746650874615
v 0.0005286880186758935 -0.00518381129950285 0.010712391696870327
v 0.000641274731606245 -0.008181696757674217 0.010712391696870327
v 0.0005286880186758935 -0.00518381129950285 0.010712391696870327
v 0.000641274731606245 -0.008181696757674217 0.010712391696870327
v -0.000138405041070655 -0.005208862479776144 0.010712391696870327
v -2.5817724235821515e-05 -0.008206749334931374 0.010712391696870327
v -0.000138405041070655 -0.005208862479776144 0.010712391696870327
v -2.5817724235821515e-05 -0.008206749334931374 0.010712391696870327
v -0.0007394319982267916 -0.00523143308237195 0.010422746650874615
v -0.0006268523284234107 -0.008229320868849754 0.010422746650874615
v -0.0007394319982267916 -0.00523143308237195 0.010422746650874615
v -0.0006268523284234107 -0.008229320868849754 0.010422746650874615
v -0.0011553596705198288 -0.005247054155915976 0.009900826029479504
v -0.0010427728993818164 -0.008244939148426056 0.009900826029479504
v -0.0011553596705198288 -0.005247054155915976 0.009900826029479504
v -0.0010427728993818164 -0.008244939148426056 0.009900826029479504
v -0.001303803059272468 -0.0052526299841701984 0.009249999187886715
v -0.0011912164045497775 -0.008250514976680279 0.009249999187886715
v 0.0013037978205829859 0.005252626724541187 0.009249999187886715
v 0.001191218150779605 0.008250514045357704 0.009249999187886715
v 0.0011553614167496562 0.005247053224593401 0.008599172346293926
v 0.0011553614167496562 0.005247053224593401 0.008599172346293926
v 0.001191218150779605 0.008250514045357704 0.009249999187886715
v 0.0010427746456116438 0.008244938217103481 0.008599172346293926
v 0.0011553614167496562 0.005247053224593401 0.008599172346293926
v 0.0010427746456116438 0.008244938217103481 0.008599172346293926
v 0.000739433104172349 0.005231434013694525 0.008077251724898815
v 0.000626853434368968 0.008229321800172329 0.008077251724898815
v 0.000739433104172349 0.005231434013694525 0.008077251724898815
v 0.000626853434368968 0.008229321800172329 0.008077251724898815
v 0.00013840616156812757 0.005208863411098719 0.00778760714456439
v 2.5819463189691305e-05 0.008206748403608799 0.00778760714456439
v 0.00013840616156812757 0.005208863411098719 0.00778760714456439
v 2.5819463189691305e-05 0.008206748403608799 0.00778760714456439
v -0.0005286862724460661 0.005183810368180275 0.00778760714456439
v -0.0006412742077372968 0.008181698620319366 0.00778760714456439
v -0.0005286862724460661 0.005183810368180275 0.00778760714456439
v -0.0006412742077372968 0.008181698620319366 0.00778760714456439
v -0.001129721524193883 0.0051612406969070435 0.008077251724898815
v -0.001242301193997264 0.00815912801772356 0.008077251724898815
v -0.001129721524193883 0.0051612406969070435 0.008077251724898815
v -0.001242301193997264 0.00815912801772356 0.008077251724898815
v -0.0015456415712833405 0.005145620554685593 0.008599172346293926
v -0.001658228226006031 0.008143505081534386 0.008599172346293926
v -0.0015456415712833405 0.005145620554685593 0.008599172346293926
v -0.001658228226006031 0.008143505081534386 0.008599172346293926
v -0.0016940849600359797 0.00514004472643137 0.009249999187886715
v -0.0018066716147586703 0.008137930184602737 0.009249999187886715
v -0.0016940849600359797 0.00514004472643137 0.009249999187886715
v -0.0018066716147586703 0.008137930184602737 0.009249999187886715
v -0.0015456415712833405 0.005145620554685593 0.009900826029479504
v -0.001658228226006031 0.008143505081534386 0.009900826029479504
v -0.0015456415712833405 0.005145620554685593 0.009900826029479504
v -0.001658228226006031 0.008143505081534386 0.009900826029479504
v -0.001129721524193883 0.0051612406969070435 0.010422746650874615
v -0.001242301193997264 0.00815912801772356 0.010422746650874615
v -0.001129721524193883 0.0051612406969070435 0.010422746650874615
v -0.001242301193997264 0.00815912801772356 0.010422746650874615
v -0.0005286862724460661 0.005183810368180275 0.010712391696870327
v -0.0006412742077372968 0.008181698620319366 0.010712391696870327
v -0.0005286862724460661 0.005183810368180275 0.010712391696870327
v -0.0006412742077372968 0.008181698620319366 0.010712391696870327
v 0.00013840616156812757 0.005208863411098719 0.010712391696870327
v 2.5819463189691305e-05 0.008206748403608799 0.010712391696870327
v 0.00013840616156812757 0.005208863411098719 0.010712391696870327
v 2.5819463189691305e-05 0.008206748403608799 0.010712391696870327
v 0.000739433104172349 0.005231434013694525 0.010422746650874615
v 0.000626853434368968 0.008229321800172329 0.010422746650874615
v 0.000739433104172349 0.005231434013694525 0.010422746650874615
v 0.000626853434368968 0.008229321800172329 0.010422746650874615
v 0.0011553614167496562 0.005247053224593401 0.009900826029479504
v 0.0010427746456116438 0.008244938217103481 0.009900826029479504
v 0.0011553614167496562 0.005247053224593401 0.009900826029479504
v 0.0010427746456116438 0.008244938217103481 0.009900826029479504
v 0.0013037978205829859 0.005252626724541187 0.009249999187886715
v 0.0013037978205829859 0.005252626724541187 0.009249999187886715
v 0.0010427746456116438 0.008244938217103481 0.009900826029479504
v 0.001191218150779605 0.008250514045357704 0.009249999187886715
v -0.0014145711902529001 -0.0004989832523278892 0.0017499992391094565
v -0.0014145711902529001 -0.0004989832523278892 -0.0017500004032626748
v -0.0014909900492057204 0.00016419132589362562 0.0017499992391094565
v -0.0014909900492057204 0.00016419132589362562 -0.0017500004032626748
v -0.0014909900492057204 0.00016419132589362562 0.0017499992391094565
v -0.0014909900492057204 0.00016419132589362562 -0.0017500004032626748
v -0.0012720952508971095 0.0007948454585857689 0.0017499992391094565
v -0.0012720952508971095 0.0007948454585857689 -0.0017500004032626748
v -0.0012720952508971095 0.0007948454585857689 0.0017499992391094565
v -0.0012720952508971095 0.0007948454585857689 -0.0017500004032626748
v -0.0008012457401491702 0.001268072403036058 0.0017499992391094565
v -0.0008012457401491702 0.001268072403036058 -0.0017500004032626748
v -0.0008012457401491702 0.001268072403036058 0.0017499992391094565
v -0.0008012457401491702 0.001268072403036058 -0.0017500004032626748
v -0.0001717001141514629 0.0014901417307555676 0.0017499992391094565
v -0.0001717001141514629 0.0014901417307555676 -0.0017500004032626748
v -0.0001717001141514629 0.0014901417307555676 0.0017499992391094565
v -0.0001717001141514629 0.0014901417307555676 -0.0017500004032626748
v 0.0004918466438539326 0.0014170677168294787 0.0017499992391094565
v 0.0004918466438539326 0.0014170677168294787 -0.0017500004032626748
v 0.0004918466438539326 0.0014170677168294787 0.0017499992391094565
v 0.0004918466438539326 0.0014170677168294787 -0.0017500004032626748
v 0.0010579813970252872 0.001063329167664051 0.0017499992391094565
v 0.0010579813970252872 0.001063329167664051 -0.0017500004032626748
v 0.0010579813970252872 0.001063329167664051 0.0017499992391094565
v 0.0010579813970252872 0.001063329167664051 -0.0017500004032626748
v 0.0014145723544061184 0.0004989839508198202 0.0017499992391094565
v 0.0014145723544061184 0.0004989839508198202 -0.0017500004032626748
v 0.0014145723544061184 0.0004989839508198202 0.0017499992391094565
v 0.0014145723544061184 0.0004989839508198202 -0.0017500004032626748
v 0.001490984228439629 -0.00016419308667536825 0.0017499992391094565
v 0.001490984228439629 -0.00016419308667536825 -0.0017500004032626748
v 0.001490984228439629 -0.00016419308667536825 0.0017499992391094565
v 0.001490984228439629 -0.00016419308667536825 -0.0017500004032626748
v 0.0012720893137156963 -0.0007948472048155963 0.0017499992391094565
v 0.0012720893137156963 -0.0007948472048155963 -0.0017500004032626748
v 0.0012720893137156963 -0.0007948472048155963 0.0017499992391094565
v 0.0012720893137156963 -0.0007948472048155963 -0.0017500004032626748
v 0.0008012468460947275 -0.001268071704544127 0.0017499992391094565
v 0.0008012468460947275 -0.001268071704544127 -0.0017500004032626748
v 0.0008012468460947275 -0.001268071704544127 0.0017499992391094565
v 0.0008012468460947275 -0.001268071704544127 -0.0017500004032626748
v 0.0001717012346489355 -0.0014901410322636366 0.0017499992391094565
v 0.0001717012346489355 -0.0014901410322636366 -0.0017500004032626748
v 0.0001717012346489355 -0.0014901410322636366 0.0017499992391094565
v 0.0001717012346489355 -0.0014901410322636366 -0.0017500004032626748
v -0.0004918525228276849 -0.0014170694630593061 0.0017499992391094565
v -0.0004918525228276849 -0.0014170694630593061 -0.0017500004032626748
v -0.0004918525228276849 -0.0014170694630593061 0.0017499992391094565
v -0.0004918525228276849 -0.0014170694630593061 -0.0017500004032626748
v -0.0010579873342067003 -0.0010633309138938785 0.0017499992391094565
v -0.0010579873342067003 -0.0010633309138938785 -0.0017500004032626748
v -0.0010579873342067003 -0.0010633309138938785 0.0017499992391094565
v -0.0010579873342067003 -0.0010633309138938785 -0.0017500004032626748
v -0.0014145711902529001 -0.0004989832523278892 0.0017499992391094565
v -0.0014145711902529001 -0.0004989832523278892 -0.0017500004032626748
f 1 2 3
f 2 1 4
f 4 1 5
f 4 5 6
f 7 8 9
f 9 8 10
f 9 10 11
f 11 10 12
f 11 12 13
f 5 14 15
f 3 16 1
f 1 16 17
f 1 17 7
f 14 5 18
f 18 5 19
f 18 19 20
f 12 21 13
f 13 21 22
f 13 22 15
f 15 22 23
f 15 23 5
f 5 23 24
f 5 24 6
f 9 25 7
f 7 25 26
f 7 26 1
f 1 26 27
f 1 27 28
f 28 27 29
f 28 29 30
f 31 32 33
f 33 32 34
f 35 36 37
f 37 36 38
f 39 40 41
f 41 40 42
f 43 44 45
f 45 44 46
f 47 48 49
f 49 48 50
f 51 52 53
f 53 52 54
f 55 56 57
f 57 56 58
f 59 60 61
f 61 60 62
f 63 64 65
f 65 64 66
f 67 68 69
f 69 68 70
f 71 72 73
f 73 72 74
f 75 76 77
f 77 76 78
f 79 80 81
f 81 80 82
f 83 84 85
f 85 84 86
f 87 88 89
f 89 88 90
f 91 92 93
f 93 92 94
f 95 96 97
f 97 96 98
f 99 100 101
f 101 100 102
f 103 104 105
f 106 104 107
f 107 104 108
f 109 105 110
f 110 105 104
f 110 104 111
f 111 104 106
f 112 105 113
f 113 105 114
f 113 114 115
f 116 117 118
f 118 117 119
f 116 118 120
f 120 118 121
f 120 121 108
f 108 121 122
f 108 122 107
f 112 123 105
f 105 123 124
f 105 124 103
f 103 124 125
f 103 125 126
f 117 127 119
f 119 127 128
f 119 128 129
f 125 130 126
f 126 130 131
f 126 131 132
f 132 131 133
f 132 133 134
f 134 133 135
f 134 135 136
f 136 135 137
f 138 139 140
f 140 139 141
f 140 141 137
f 137 141 142
f 137 142 136
f 114 143 115
f 115 143 144
f 115 144 145
f 145 144 146
f 145 146 138
f 138 146 147
f 138 147 139
f 109 148 105
f 105 148 149
f 105 149 150
f 150 149 151
f 150 151 152
f 152 151 153
f 152 153 154
f 154 153 129
f 154 129 155
f 155 129 128
f 156 157 158
f 159 160 161
f 162 163 164
f 165 166 167
f 168 169 170
f 171 172 173
f 174 175 176
f 177 178 179
f 180 181 182
f 183 184 185
f 186 187 188
f 189 190 191
f 192 193 194
f 192 194 195
f 196 197 198
f 196 198 199
f 200 201 202
f 200 202 203
f 204 205 206
f 204 206 207
f 208 209 210
f 208 210 211
f 212 213 214
f 212 214 215
f 216 217 218
f 216 218 219
f 220 221 222
f 220 222 223
f 224 225 226
f 227 228 229
f 229 228 230
f 229 230 226
f 226 230 231
f 226 231 224
f 232 233 234
f 235 236 237
f 238 239 240
f 241 242 243
f 244 245 246
f 247 248 249
f 250 251 252
f 253 254 255
f 256 257 258
f 259 260 261
f 262 263 264
f 265 266 267
f 268 269 270
f 268 270 271
f 272 273 274
f 272 274 275
f 276 277 278
f 276 278 279
f 280 281 282
f 280 282 283
f 284 285 286
f 284 286 287
f 288 289 290
f 288 290 291
f 292 293 294
f 292 294 295
f 296 297 298
f 296 298 299
f 300 301 302
f 303 304 305
f 306 307 308
f 305 304 309
f 309 304 310
f 309 310 311
f 306 308 312
f 302 301 313
f 313 301 314
f 313 314 315
f 315 314 316
f 316 314 317
f 316 317 318
f 318 317 319
f 318 319 320
f 320 319 321
f 321 319 322
f 321 322 323
f 302 324 300
f 300 324 325
f 300 325 326
f 326 325 327
f 326 327 328
f 328 327 329
f 328 329 330
f 330 329 331
f 332 333 334
f 334 333 335
f 305 336 303
f 303 336 337
f 303 337 338
f 339 331 340
f 340 331 329
f 340 329 308
f 308 329 309
f 308 309 312
f 312 309 311
f 307 341 308
f 308 342 343
f 308 343 332
f 332 343 344
f 332 344 333
f 337 345 338
f 338 345 346
f 338 346 347
f 346 348 347
f 347 348 349
f 347 349 335
f 335 349 350
f 335 350 334
f 322 351 323
f 323 351 352
f 323 352 340
f 340 352 353
f 340 353 339
f 354 355 356
f 356 355 357
f 358 359 360
f 361 362 356
f 356 362 363
f 356 363 354
f 354 363 364
f 364 365 354
f 354 365 366
f 354 366 367
f 368 369 356
f 356 369 370
f 360 371 358
f 358 371 372
f 358 372 370
f 370 372 373
f 370 373 356
f 356 373 374
f 356 374 361
f 358 375 359
f 359 375 376
f 359 376 377
f 377 376 378
f 377 378 367
f 367 378 379
f 367 379 354
f 354 379 380
f 354 380 381
f 382 383 384
f 385 386 387
f 387 386 388
f 384 383 389
f 390 391 392
f 392 391 393
f 392 393 394
f 385 387 395
f 395 387 396
f 395 396 384
f 384 396 397
f 384 397 382
f 398 399 400
f 400 399 401
f 400 401 389
f 402 384 403
f 403 384 389
f 403 389 404
f 404 389 401
f 393 405 394
f 394 405 406
f 394 406 407
f 407 406 408
f 407 408 409
f 409 408 410
f 409 410 411
f 411 410 384
f 411 384 412
f 412 384 402
f 383 413 389
f 389 413 414
f 389 414 415
f 386 416 388
f 388 416 417
f 388 417 418
f 417 419 418
f 418 419 420
f 418 420 421
f 414 422 415
f 415 423 424
f 415 424 425
f 425 424 426
f 425 426 427
f 427 426 428
f 420 429 421
f 421 429 430
f 421 430 428
f 428 430 431
f 428 431 427
f 400 432 398
f 398 432 433
f 398 433 434
f 434 433 435
f 434 435 390
f 390 435 436
f 390 436 391
f 437 438 439
f 439 438 440
f 441 442 443
f 443 442 444
f 443 444 445
f 446 447 448
f 449 450 451
f 451 450 452
f 451 452 445
f 444 453 445
f 445 453 454
f 445 454 451
f 451 454 455
f 446 456 447
f 447 456 457
f 447 457 458
f 443 459 441
f 441 459 460
f 441 460 448
f 448 460 461
f 448 461 446
f 452 462 445
f 445 462 463
f 445 463 464
f 457 465 458
f 458 465 466
f 458 466 467
f 468 469 470
f 470 469 471
f 470 471 472
f 472 471 464
f 472 464 473
f 473 464 463
f 449 451 474
f 474 451 475
f 474 475 476
f 466 477 467
f 467 477 478
f 467 478 479
f 479 478 480
f 479 480 481
f 481 480 482
f 481 482 483
f 483 482 451
f 483 451 484
f 484 451 455
f 485 486 487
f 487 486 488
f 487 488 468
f 468 488 489
f 468 489 469
f 475 490 476
f 476 490 491
f 476 491 492
f 492 491 493
f 492 493 485
f 485 493 494
f 485 494 486
f 495 496 497
f 497 496 498
f 498 499 497
f 500 501 502
f 497 503 504
f 505 506 507
f 497 508 509
f 497 509 510
f 511 512 513
f 514 515 516
f 516 515 517
f 516 517 518
f 518 517 519
f 520 521 522
f 513 523 524
f 522 525 526
f 527 528 529
f 529 528 530
f 531 532 533
f 533 532 534
f 535 536 537
f 537 536 538
f 539 540 541
f 541 540 542
f 543 544 545
f 545 544 546
f 547 548 549
f 549 548 550
f 551 552 553
f 553 552 554
f 555 556 557
f 557 556 558
f 559 560 561
f 561 560 562
f 563 564 565
f 565 564 566
f 567 568 569
f 569 568 570
f 571 572 573
f 573 572 574
f 575 576 577
f 577 576 578
f 579 580 581
f 581 580 582
f 583 584 585
f 585 584 586
f 587 588 589
f 589 588 590
f 591 592 593
f 593 592 594
f 595 596 597
f 597 596 598
f 599 600 601
f 601 600 602
f 603 604 605
f 605 604 606
f 607 608 609
f 609 608 610
f 611 612 613
f 613 612 614
f 615 616 617
f 615 617 618
f 619 620 621
f 619 621 622
f 623 624 625
f 623 625 626
f 627 628 629
f 627 629 630
f 631 632 633
f 631 633 634
f 635 636 637
f 635 637 638
f 639 640 641
f 639 641 642
f 643 644 645
f 643 645 646
f 647 648 649
f 647 649 650
f 651 652 653
f 651 653 654
f 655 656 657
f 655 657 658
f 659 660 661
f 659 661 662
f 663 664 665
f 663 665 666
f 667 668 669
f 667 669 670
f 671 672 673
f 671 673 674
f 675 676 677
f 675 677 678
f 679 680 681
f 679 681 682
f 683 684 685
f 683 685 686
f 687 688 689
f 687 689 690
f 691 692 693
f 691 693 694
f 695 696 697
f 697 696 698
f 699 700 701
f 701 700 702
f 703 704 705
f 705 704 706
f 707 708 709
f 709 708 710
f 711 712 713
f 713 712 714
f 715 716 717
f 717 716 718
f 719 720 721
f 722 723 724
f 725 726 727
f 728 729 730
f 731 732 733
f 733 732 734
f 735 736 737
f 737 736 738
f 739 740 741
f 741 740 742
f 743 744 745
f 745 744 746
f 747 748 749
f 749 748 750
f 751 752 753
f 753 752 754
f 755 756 757
f 758 759 760
f 761 762 763
f 763 762 764
f 765 766 767
f 767 766 768
f 769 770 771
f 771 770 772
f 773 774 775
f 775 774 776
f 777 778 779
f 779 778 780
f 781 782 783
f 783 782 784
f 785 786 787
f 787 786 788
f 789 790 791
f 791 790 792
f 793 794 795
f 795 794 796
f 797 798 799
f 799 798 800
f 801 802 803
f 803 802 804
f 805 806 807
f 807 806 808
f 809 810 811
f 812 813 814
f 815 816 817
f 817 816 818
f 819 820 821
f 821 820 822
f 823 824 825
f 825 824 826
f 827 828 829
f 829 828 830
f 831 832 833
f 833 832 834
f 835 836 837
f 837 836 838
f 839 840 841
f 841 840 842
f 843 844 845
f 845 844 846
f 847 848 849
f 849 848 850
f 851 852 853
f 853 852 854
f 855 856 857
f 857 856 858
f 859 860 861
f 861 860 862
f 863 864 865
f 865 864 866
f 867 868 869
f 869 868 870
